<mxfile host="app.diagrams.net" modified="2023-11-09T11:01:22.747Z" agent="Mozilla/5.0 (Windows NT 10.0; Win64; x64) AppleWebKit/537.36 (KHTML, like Gecko) Chrome/118.0.0.0 Safari/537.36" etag="0IHyTSHG2KsBK0HXZtyg" version="22.1.0" type="device">
  <diagram name="Страница — 1" id="eYkond1HZFH2eVywNNJw">
    <mxGraphModel dx="1183" dy="620" grid="1" gridSize="10" guides="1" tooltips="1" connect="1" arrows="1" fold="1" page="1" pageScale="1" pageWidth="827" pageHeight="1169" math="0" shadow="0">
      <root>
        <mxCell id="0" />
        <mxCell id="1" parent="0" />
        <mxCell id="aQD4BK5ffvHSCDFQBREc-1" style="edgeStyle=orthogonalEdgeStyle;rounded=0;orthogonalLoop=1;jettySize=auto;html=1;endArrow=none;endFill=0;" edge="1" parent="1">
          <mxGeometry relative="1" as="geometry">
            <mxPoint x="80.02999999999997" y="265" as="targetPoint" />
            <mxPoint x="80.02999999999997" y="80" as="sourcePoint" />
          </mxGeometry>
        </mxCell>
        <mxCell id="aQD4BK5ffvHSCDFQBREc-2" value="&lt;span style=&quot;font-size: 13px;&quot;&gt;&lt;b&gt;Працівники&lt;/b&gt;&lt;/span&gt;" style="rounded=0;whiteSpace=wrap;html=1;" vertex="1" parent="1">
          <mxGeometry x="80.05999999999995" y="40" width="160" height="40" as="geometry" />
        </mxCell>
        <mxCell id="aQD4BK5ffvHSCDFQBREc-3" style="edgeStyle=orthogonalEdgeStyle;rounded=0;orthogonalLoop=1;jettySize=auto;html=1;exitX=0;exitY=0.5;exitDx=0;exitDy=0;startArrow=openThin;startFill=0;endArrow=none;endFill=0;" edge="1" parent="1" source="aQD4BK5ffvHSCDFQBREc-4">
          <mxGeometry relative="1" as="geometry">
            <mxPoint x="80.05999999999995" y="105" as="targetPoint" />
          </mxGeometry>
        </mxCell>
        <mxCell id="aQD4BK5ffvHSCDFQBREc-152" style="edgeStyle=orthogonalEdgeStyle;rounded=0;orthogonalLoop=1;jettySize=auto;html=1;exitX=1;exitY=0.5;exitDx=0;exitDy=0;endArrow=ERoneToMany;endFill=0;startArrow=ERmandOne;startFill=0;" edge="1" parent="1" source="aQD4BK5ffvHSCDFQBREc-4">
          <mxGeometry relative="1" as="geometry">
            <mxPoint x="320" y="225" as="targetPoint" />
            <Array as="points">
              <mxPoint x="280" y="105" />
              <mxPoint x="280" y="225" />
            </Array>
          </mxGeometry>
        </mxCell>
        <mxCell id="aQD4BK5ffvHSCDFQBREc-167" style="edgeStyle=orthogonalEdgeStyle;rounded=0;orthogonalLoop=1;jettySize=auto;html=1;exitX=1;exitY=0.5;exitDx=0;exitDy=0;entryX=1;entryY=0.5;entryDx=0;entryDy=0;endArrow=ERoneToMany;endFill=0;startArrow=ERmandOne;startFill=0;" edge="1" parent="1" source="aQD4BK5ffvHSCDFQBREc-4" target="aQD4BK5ffvHSCDFQBREc-140">
          <mxGeometry relative="1" as="geometry">
            <Array as="points">
              <mxPoint x="280" y="105" />
              <mxPoint x="280" y="465" />
            </Array>
          </mxGeometry>
        </mxCell>
        <mxCell id="aQD4BK5ffvHSCDFQBREc-4" value="Номер працівника" style="rounded=1;whiteSpace=wrap;html=1;" vertex="1" parent="1">
          <mxGeometry x="100.05999999999995" y="90" width="140" height="30" as="geometry" />
        </mxCell>
        <mxCell id="aQD4BK5ffvHSCDFQBREc-5" style="edgeStyle=orthogonalEdgeStyle;rounded=0;orthogonalLoop=1;jettySize=auto;html=1;exitX=0;exitY=0.5;exitDx=0;exitDy=0;endArrow=none;endFill=0;startArrow=openThin;startFill=0;" edge="1" parent="1" source="aQD4BK5ffvHSCDFQBREc-6">
          <mxGeometry relative="1" as="geometry">
            <mxPoint x="80.05999999999995" y="145" as="targetPoint" />
          </mxGeometry>
        </mxCell>
        <mxCell id="aQD4BK5ffvHSCDFQBREc-6" value="Прізвище" style="rounded=1;whiteSpace=wrap;html=1;" vertex="1" parent="1">
          <mxGeometry x="100.05999999999995" y="130" width="140" height="30" as="geometry" />
        </mxCell>
        <mxCell id="aQD4BK5ffvHSCDFQBREc-7" style="edgeStyle=orthogonalEdgeStyle;rounded=0;orthogonalLoop=1;jettySize=auto;html=1;exitX=0;exitY=0.5;exitDx=0;exitDy=0;endArrow=none;endFill=0;startArrow=openThin;startFill=0;" edge="1" parent="1" source="aQD4BK5ffvHSCDFQBREc-8">
          <mxGeometry relative="1" as="geometry">
            <mxPoint x="80.02999999999997" y="185.27586206896558" as="targetPoint" />
          </mxGeometry>
        </mxCell>
        <mxCell id="aQD4BK5ffvHSCDFQBREc-8" value="Ім&#39;я" style="rounded=1;whiteSpace=wrap;html=1;" vertex="1" parent="1">
          <mxGeometry x="100.05999999999995" y="170" width="140" height="30" as="geometry" />
        </mxCell>
        <mxCell id="aQD4BK5ffvHSCDFQBREc-9" style="edgeStyle=orthogonalEdgeStyle;rounded=0;orthogonalLoop=1;jettySize=auto;html=1;exitX=0;exitY=0.5;exitDx=0;exitDy=0;startArrow=openThin;startFill=0;endArrow=none;endFill=0;" edge="1" parent="1" source="aQD4BK5ffvHSCDFQBREc-10">
          <mxGeometry relative="1" as="geometry">
            <mxPoint x="80.05999999999995" y="225.27586206896558" as="targetPoint" />
          </mxGeometry>
        </mxCell>
        <mxCell id="aQD4BK5ffvHSCDFQBREc-10" value="По-батькові" style="rounded=1;whiteSpace=wrap;html=1;" vertex="1" parent="1">
          <mxGeometry x="100.05999999999995" y="210" width="140" height="30" as="geometry" />
        </mxCell>
        <mxCell id="aQD4BK5ffvHSCDFQBREc-11" style="edgeStyle=orthogonalEdgeStyle;rounded=0;orthogonalLoop=1;jettySize=auto;html=1;exitX=0;exitY=0.5;exitDx=0;exitDy=0;startArrow=openThin;startFill=0;endArrow=none;endFill=0;" edge="1" parent="1">
          <mxGeometry relative="1" as="geometry">
            <mxPoint x="80.05999999999995" y="265.2758620689656" as="targetPoint" />
            <mxPoint x="100.05999999999995" y="265" as="sourcePoint" />
          </mxGeometry>
        </mxCell>
        <mxCell id="aQD4BK5ffvHSCDFQBREc-14" value="Мобільний телефон" style="rounded=1;whiteSpace=wrap;html=1;" vertex="1" parent="1">
          <mxGeometry x="100.05999999999995" y="250" width="140" height="30" as="geometry" />
        </mxCell>
        <mxCell id="aQD4BK5ffvHSCDFQBREc-17" value="" style="endArrow=none;html=1;rounded=0;" edge="1" parent="1">
          <mxGeometry width="50" height="50" relative="1" as="geometry">
            <mxPoint x="117.55999999999995" y="113.23000000000002" as="sourcePoint" />
            <mxPoint x="222.55999999999995" y="113" as="targetPoint" />
          </mxGeometry>
        </mxCell>
        <mxCell id="aQD4BK5ffvHSCDFQBREc-19" style="edgeStyle=orthogonalEdgeStyle;rounded=0;orthogonalLoop=1;jettySize=auto;html=1;exitX=0;exitY=1;exitDx=0;exitDy=0;endArrow=none;endFill=0;" edge="1" parent="1" source="aQD4BK5ffvHSCDFQBREc-20">
          <mxGeometry relative="1" as="geometry">
            <mxPoint x="319.9999999999999" y="425" as="targetPoint" />
            <mxPoint x="319.9999999999999" y="355" as="sourcePoint" />
          </mxGeometry>
        </mxCell>
        <mxCell id="aQD4BK5ffvHSCDFQBREc-20" value="&lt;font size=&quot;1&quot; style=&quot;&quot;&gt;&lt;b style=&quot;font-size: 13px;&quot;&gt;Бригади&lt;/b&gt;&lt;/font&gt;" style="rounded=0;whiteSpace=wrap;html=1;" vertex="1" parent="1">
          <mxGeometry x="319.9999999999999" y="320" width="160" height="40" as="geometry" />
        </mxCell>
        <mxCell id="aQD4BK5ffvHSCDFQBREc-21" style="edgeStyle=orthogonalEdgeStyle;rounded=0;orthogonalLoop=1;jettySize=auto;html=1;exitX=0;exitY=0.5;exitDx=0;exitDy=0;startArrow=openThin;startFill=0;endArrow=none;endFill=0;" edge="1" parent="1" source="aQD4BK5ffvHSCDFQBREc-22">
          <mxGeometry relative="1" as="geometry">
            <mxPoint x="319.9999999999999" y="385" as="targetPoint" />
          </mxGeometry>
        </mxCell>
        <mxCell id="aQD4BK5ffvHSCDFQBREc-22" value="Номер бригади" style="rounded=1;whiteSpace=wrap;html=1;" vertex="1" parent="1">
          <mxGeometry x="339.9999999999999" y="370" width="140" height="30" as="geometry" />
        </mxCell>
        <mxCell id="aQD4BK5ffvHSCDFQBREc-23" style="edgeStyle=orthogonalEdgeStyle;rounded=0;orthogonalLoop=1;jettySize=auto;html=1;exitX=0;exitY=0.5;exitDx=0;exitDy=0;endArrow=none;endFill=0;startArrow=openThin;startFill=0;" edge="1" parent="1" source="aQD4BK5ffvHSCDFQBREc-24">
          <mxGeometry relative="1" as="geometry">
            <mxPoint x="319.9999999999999" y="425" as="targetPoint" />
          </mxGeometry>
        </mxCell>
        <mxCell id="aQD4BK5ffvHSCDFQBREc-24" value="Назва бригади" style="rounded=1;whiteSpace=wrap;html=1;" vertex="1" parent="1">
          <mxGeometry x="339.9999999999999" y="410" width="140" height="30" as="geometry" />
        </mxCell>
        <mxCell id="aQD4BK5ffvHSCDFQBREc-25" value="" style="endArrow=none;html=1;rounded=0;" edge="1" parent="1">
          <mxGeometry width="50" height="50" relative="1" as="geometry">
            <mxPoint x="365.01" y="393" as="sourcePoint" />
            <mxPoint x="455" y="393" as="targetPoint" />
          </mxGeometry>
        </mxCell>
        <mxCell id="aQD4BK5ffvHSCDFQBREc-27" style="edgeStyle=orthogonalEdgeStyle;rounded=0;orthogonalLoop=1;jettySize=auto;html=1;endArrow=none;endFill=0;" edge="1" parent="1">
          <mxGeometry relative="1" as="geometry">
            <mxPoint x="559.97" y="505" as="targetPoint" />
            <mxPoint x="559.97" y="320" as="sourcePoint" />
          </mxGeometry>
        </mxCell>
        <mxCell id="aQD4BK5ffvHSCDFQBREc-28" value="&lt;span style=&quot;font-size: 13px;&quot;&gt;&lt;b&gt;Клієнти&lt;/b&gt;&lt;/span&gt;" style="rounded=0;whiteSpace=wrap;html=1;" vertex="1" parent="1">
          <mxGeometry x="560" y="280" width="160" height="40" as="geometry" />
        </mxCell>
        <mxCell id="aQD4BK5ffvHSCDFQBREc-29" style="edgeStyle=orthogonalEdgeStyle;rounded=0;orthogonalLoop=1;jettySize=auto;html=1;exitX=0;exitY=0.5;exitDx=0;exitDy=0;startArrow=openThin;startFill=0;endArrow=none;endFill=0;" edge="1" source="aQD4BK5ffvHSCDFQBREc-30" parent="1">
          <mxGeometry relative="1" as="geometry">
            <mxPoint x="560" y="345" as="targetPoint" />
          </mxGeometry>
        </mxCell>
        <mxCell id="aQD4BK5ffvHSCDFQBREc-30" value="Номер клієнта" style="rounded=1;whiteSpace=wrap;html=1;" vertex="1" parent="1">
          <mxGeometry x="580" y="330" width="140" height="30" as="geometry" />
        </mxCell>
        <mxCell id="aQD4BK5ffvHSCDFQBREc-31" style="edgeStyle=orthogonalEdgeStyle;rounded=0;orthogonalLoop=1;jettySize=auto;html=1;exitX=0;exitY=0.5;exitDx=0;exitDy=0;endArrow=none;endFill=0;startArrow=openThin;startFill=0;" edge="1" source="aQD4BK5ffvHSCDFQBREc-32" parent="1">
          <mxGeometry relative="1" as="geometry">
            <mxPoint x="560" y="385" as="targetPoint" />
          </mxGeometry>
        </mxCell>
        <mxCell id="aQD4BK5ffvHSCDFQBREc-32" value="Прізвище" style="rounded=1;whiteSpace=wrap;html=1;" vertex="1" parent="1">
          <mxGeometry x="580" y="370" width="140" height="30" as="geometry" />
        </mxCell>
        <mxCell id="aQD4BK5ffvHSCDFQBREc-33" style="edgeStyle=orthogonalEdgeStyle;rounded=0;orthogonalLoop=1;jettySize=auto;html=1;exitX=0;exitY=0.5;exitDx=0;exitDy=0;endArrow=none;endFill=0;startArrow=openThin;startFill=0;" edge="1" source="aQD4BK5ffvHSCDFQBREc-34" parent="1">
          <mxGeometry relative="1" as="geometry">
            <mxPoint x="559.97" y="425.2758620689656" as="targetPoint" />
          </mxGeometry>
        </mxCell>
        <mxCell id="aQD4BK5ffvHSCDFQBREc-34" value="Ім&#39;я" style="rounded=1;whiteSpace=wrap;html=1;" vertex="1" parent="1">
          <mxGeometry x="580" y="410" width="140" height="30" as="geometry" />
        </mxCell>
        <mxCell id="aQD4BK5ffvHSCDFQBREc-35" style="edgeStyle=orthogonalEdgeStyle;rounded=0;orthogonalLoop=1;jettySize=auto;html=1;exitX=0;exitY=0.5;exitDx=0;exitDy=0;startArrow=openThin;startFill=0;endArrow=none;endFill=0;" edge="1" source="aQD4BK5ffvHSCDFQBREc-36" parent="1">
          <mxGeometry relative="1" as="geometry">
            <mxPoint x="560" y="465.2758620689656" as="targetPoint" />
          </mxGeometry>
        </mxCell>
        <mxCell id="aQD4BK5ffvHSCDFQBREc-36" value="По-батькові" style="rounded=1;whiteSpace=wrap;html=1;" vertex="1" parent="1">
          <mxGeometry x="580" y="450" width="140" height="30" as="geometry" />
        </mxCell>
        <mxCell id="aQD4BK5ffvHSCDFQBREc-37" style="edgeStyle=orthogonalEdgeStyle;rounded=0;orthogonalLoop=1;jettySize=auto;html=1;exitX=0;exitY=0.5;exitDx=0;exitDy=0;startArrow=openThin;startFill=0;endArrow=none;endFill=0;" edge="1" parent="1">
          <mxGeometry relative="1" as="geometry">
            <mxPoint x="560" y="505.2758620689656" as="targetPoint" />
            <mxPoint x="580" y="505" as="sourcePoint" />
          </mxGeometry>
        </mxCell>
        <mxCell id="aQD4BK5ffvHSCDFQBREc-38" value="Мобільний телефон" style="rounded=1;whiteSpace=wrap;html=1;" vertex="1" parent="1">
          <mxGeometry x="580" y="490" width="140" height="30" as="geometry" />
        </mxCell>
        <mxCell id="aQD4BK5ffvHSCDFQBREc-39" value="" style="endArrow=none;html=1;rounded=0;" edge="1" parent="1">
          <mxGeometry width="50" height="50" relative="1" as="geometry">
            <mxPoint x="608.75" y="353.23" as="sourcePoint" />
            <mxPoint x="691.25" y="353" as="targetPoint" />
          </mxGeometry>
        </mxCell>
        <mxCell id="aQD4BK5ffvHSCDFQBREc-40" style="edgeStyle=orthogonalEdgeStyle;rounded=0;orthogonalLoop=1;jettySize=auto;html=1;exitX=0;exitY=1;exitDx=0;exitDy=0;endArrow=none;endFill=0;" edge="1" source="aQD4BK5ffvHSCDFQBREc-41" parent="1">
          <mxGeometry relative="1" as="geometry">
            <mxPoint x="560" y="225" as="targetPoint" />
            <mxPoint x="560" y="115" as="sourcePoint" />
          </mxGeometry>
        </mxCell>
        <mxCell id="aQD4BK5ffvHSCDFQBREc-41" value="&lt;font size=&quot;1&quot; style=&quot;&quot;&gt;&lt;b style=&quot;font-size: 13px;&quot;&gt;Спеціальності&lt;/b&gt;&lt;/font&gt;" style="rounded=0;whiteSpace=wrap;html=1;" vertex="1" parent="1">
          <mxGeometry x="559.9999999999999" y="80" width="160" height="40" as="geometry" />
        </mxCell>
        <mxCell id="aQD4BK5ffvHSCDFQBREc-42" style="edgeStyle=orthogonalEdgeStyle;rounded=0;orthogonalLoop=1;jettySize=auto;html=1;exitX=0;exitY=0.5;exitDx=0;exitDy=0;startArrow=openThin;startFill=0;endArrow=none;endFill=0;" edge="1" source="aQD4BK5ffvHSCDFQBREc-43" parent="1">
          <mxGeometry relative="1" as="geometry">
            <mxPoint x="559.9999999999999" y="145" as="targetPoint" />
          </mxGeometry>
        </mxCell>
        <mxCell id="aQD4BK5ffvHSCDFQBREc-43" value="Номер спеціальності" style="rounded=1;whiteSpace=wrap;html=1;" vertex="1" parent="1">
          <mxGeometry x="579.9999999999999" y="130" width="140" height="30" as="geometry" />
        </mxCell>
        <mxCell id="aQD4BK5ffvHSCDFQBREc-44" style="edgeStyle=orthogonalEdgeStyle;rounded=0;orthogonalLoop=1;jettySize=auto;html=1;exitX=0;exitY=0.5;exitDx=0;exitDy=0;endArrow=none;endFill=0;startArrow=openThin;startFill=0;" edge="1" source="aQD4BK5ffvHSCDFQBREc-45" parent="1">
          <mxGeometry relative="1" as="geometry">
            <mxPoint x="559.9999999999999" y="185" as="targetPoint" />
          </mxGeometry>
        </mxCell>
        <mxCell id="aQD4BK5ffvHSCDFQBREc-45" value="Назва спеціальності" style="rounded=1;whiteSpace=wrap;html=1;" vertex="1" parent="1">
          <mxGeometry x="579.9999999999999" y="170" width="140" height="30" as="geometry" />
        </mxCell>
        <mxCell id="aQD4BK5ffvHSCDFQBREc-46" value="" style="endArrow=none;html=1;rounded=0;" edge="1" parent="1">
          <mxGeometry width="50" height="50" relative="1" as="geometry">
            <mxPoint x="587.5" y="153" as="sourcePoint" />
            <mxPoint x="712.5" y="153" as="targetPoint" />
          </mxGeometry>
        </mxCell>
        <mxCell id="aQD4BK5ffvHSCDFQBREc-48" style="edgeStyle=orthogonalEdgeStyle;rounded=0;orthogonalLoop=1;jettySize=auto;html=1;exitX=0;exitY=0.5;exitDx=0;exitDy=0;endArrow=none;endFill=0;startArrow=openThin;startFill=0;" edge="1" parent="1" source="aQD4BK5ffvHSCDFQBREc-47">
          <mxGeometry relative="1" as="geometry">
            <mxPoint x="560" y="225.04761904761904" as="targetPoint" />
          </mxGeometry>
        </mxCell>
        <mxCell id="aQD4BK5ffvHSCDFQBREc-47" value="Заробітна плата" style="rounded=1;whiteSpace=wrap;html=1;" vertex="1" parent="1">
          <mxGeometry x="579.9999999999999" y="210" width="140" height="30" as="geometry" />
        </mxCell>
        <mxCell id="aQD4BK5ffvHSCDFQBREc-49" style="edgeStyle=orthogonalEdgeStyle;rounded=0;orthogonalLoop=1;jettySize=auto;html=1;endArrow=none;endFill=0;exitX=0;exitY=1;exitDx=0;exitDy=0;" edge="1" parent="1" source="aQD4BK5ffvHSCDFQBREc-50">
          <mxGeometry relative="1" as="geometry">
            <mxPoint x="80.04999999999998" y="865" as="targetPoint" />
            <mxPoint x="80.03" y="635" as="sourcePoint" />
          </mxGeometry>
        </mxCell>
        <mxCell id="aQD4BK5ffvHSCDFQBREc-50" value="&lt;span style=&quot;font-size: 13px;&quot;&gt;&lt;b&gt;Контракти&lt;/b&gt;&lt;/span&gt;" style="rounded=0;whiteSpace=wrap;html=1;" vertex="1" parent="1">
          <mxGeometry x="80.05999999999997" y="600" width="160" height="40" as="geometry" />
        </mxCell>
        <mxCell id="aQD4BK5ffvHSCDFQBREc-51" style="edgeStyle=orthogonalEdgeStyle;rounded=0;orthogonalLoop=1;jettySize=auto;html=1;exitX=0;exitY=0.5;exitDx=0;exitDy=0;startArrow=openThin;startFill=0;endArrow=none;endFill=0;" edge="1" source="aQD4BK5ffvHSCDFQBREc-52" parent="1">
          <mxGeometry relative="1" as="geometry">
            <mxPoint x="80.05999999999997" y="665" as="targetPoint" />
          </mxGeometry>
        </mxCell>
        <mxCell id="aQD4BK5ffvHSCDFQBREc-171" style="edgeStyle=orthogonalEdgeStyle;rounded=0;orthogonalLoop=1;jettySize=auto;html=1;exitX=1;exitY=0.5;exitDx=0;exitDy=0;endArrow=ERoneToMany;endFill=0;startArrow=ERmandOne;startFill=0;" edge="1" parent="1" source="aQD4BK5ffvHSCDFQBREc-52">
          <mxGeometry relative="1" as="geometry">
            <mxPoint x="320" y="580" as="targetPoint" />
            <Array as="points">
              <mxPoint x="280" y="665" />
              <mxPoint x="280" y="580" />
            </Array>
          </mxGeometry>
        </mxCell>
        <mxCell id="aQD4BK5ffvHSCDFQBREc-52" value="Номер контракту" style="rounded=1;whiteSpace=wrap;html=1;" vertex="1" parent="1">
          <mxGeometry x="100.05999999999997" y="650" width="140" height="30" as="geometry" />
        </mxCell>
        <mxCell id="aQD4BK5ffvHSCDFQBREc-53" style="edgeStyle=orthogonalEdgeStyle;rounded=0;orthogonalLoop=1;jettySize=auto;html=1;exitX=0;exitY=0.5;exitDx=0;exitDy=0;endArrow=none;endFill=0;startArrow=openThin;startFill=0;" edge="1" source="aQD4BK5ffvHSCDFQBREc-54" parent="1">
          <mxGeometry relative="1" as="geometry">
            <mxPoint x="80.05999999999997" y="705" as="targetPoint" />
          </mxGeometry>
        </mxCell>
        <mxCell id="aQD4BK5ffvHSCDFQBREc-169" style="edgeStyle=orthogonalEdgeStyle;rounded=0;orthogonalLoop=1;jettySize=auto;html=1;startArrow=ERoneToMany;startFill=0;endArrow=ERmandOne;endFill=0;" edge="1" parent="1">
          <mxGeometry relative="1" as="geometry">
            <mxPoint x="80" y="460" as="targetPoint" />
            <mxPoint x="80" y="740" as="sourcePoint" />
            <Array as="points">
              <mxPoint x="50" y="740" />
              <mxPoint x="50" y="460" />
            </Array>
          </mxGeometry>
        </mxCell>
        <mxCell id="aQD4BK5ffvHSCDFQBREc-170" style="edgeStyle=orthogonalEdgeStyle;rounded=0;orthogonalLoop=1;jettySize=auto;html=1;exitX=1;exitY=0.5;exitDx=0;exitDy=0;endArrow=ERmandOne;endFill=0;startArrow=ERoneToMany;startFill=0;entryX=1;entryY=0.5;entryDx=0;entryDy=0;" edge="1" parent="1" source="aQD4BK5ffvHSCDFQBREc-54" target="aQD4BK5ffvHSCDFQBREc-22">
          <mxGeometry relative="1" as="geometry">
            <mxPoint x="320" y="380" as="targetPoint" />
            <Array as="points">
              <mxPoint x="280" y="705" />
              <mxPoint x="280" y="770" />
              <mxPoint x="500" y="770" />
              <mxPoint x="500" y="385" />
            </Array>
          </mxGeometry>
        </mxCell>
        <mxCell id="aQD4BK5ffvHSCDFQBREc-54" value="Номер бригади" style="rounded=1;whiteSpace=wrap;html=1;" vertex="1" parent="1">
          <mxGeometry x="100.05999999999997" y="690" width="140" height="30" as="geometry" />
        </mxCell>
        <mxCell id="aQD4BK5ffvHSCDFQBREc-55" style="edgeStyle=orthogonalEdgeStyle;rounded=0;orthogonalLoop=1;jettySize=auto;html=1;exitX=0;exitY=0.5;exitDx=0;exitDy=0;endArrow=none;endFill=0;startArrow=openThin;startFill=0;" edge="1" source="aQD4BK5ffvHSCDFQBREc-56" parent="1">
          <mxGeometry relative="1" as="geometry">
            <mxPoint x="80.03" y="745.2758620689656" as="targetPoint" />
          </mxGeometry>
        </mxCell>
        <mxCell id="aQD4BK5ffvHSCDFQBREc-56" value="Номер бригадира" style="rounded=1;whiteSpace=wrap;html=1;" vertex="1" parent="1">
          <mxGeometry x="100.05999999999997" y="730" width="140" height="30" as="geometry" />
        </mxCell>
        <mxCell id="aQD4BK5ffvHSCDFQBREc-57" style="edgeStyle=orthogonalEdgeStyle;rounded=0;orthogonalLoop=1;jettySize=auto;html=1;exitX=0;exitY=0.5;exitDx=0;exitDy=0;startArrow=openThin;startFill=0;endArrow=none;endFill=0;" edge="1" source="aQD4BK5ffvHSCDFQBREc-58" parent="1">
          <mxGeometry relative="1" as="geometry">
            <mxPoint x="80.05999999999997" y="785.2758620689656" as="targetPoint" />
          </mxGeometry>
        </mxCell>
        <mxCell id="aQD4BK5ffvHSCDFQBREc-175" style="edgeStyle=orthogonalEdgeStyle;rounded=0;orthogonalLoop=1;jettySize=auto;html=1;exitX=1;exitY=0.5;exitDx=0;exitDy=0;entryX=1;entryY=0.5;entryDx=0;entryDy=0;startArrow=ERoneToMany;startFill=0;endArrow=ERmandOne;endFill=0;" edge="1" parent="1" source="aQD4BK5ffvHSCDFQBREc-58" target="aQD4BK5ffvHSCDFQBREc-30">
          <mxGeometry relative="1" as="geometry">
            <Array as="points">
              <mxPoint x="520" y="785" />
              <mxPoint x="520" y="930" />
              <mxPoint x="740" y="930" />
              <mxPoint x="740" y="345" />
            </Array>
          </mxGeometry>
        </mxCell>
        <mxCell id="aQD4BK5ffvHSCDFQBREc-58" value="Номер клієнта" style="rounded=1;whiteSpace=wrap;html=1;" vertex="1" parent="1">
          <mxGeometry x="100.05999999999997" y="770" width="140" height="30" as="geometry" />
        </mxCell>
        <mxCell id="aQD4BK5ffvHSCDFQBREc-59" style="edgeStyle=orthogonalEdgeStyle;rounded=0;orthogonalLoop=1;jettySize=auto;html=1;exitX=0;exitY=0.5;exitDx=0;exitDy=0;startArrow=openThin;startFill=0;endArrow=none;endFill=0;" edge="1" parent="1">
          <mxGeometry relative="1" as="geometry">
            <mxPoint x="80.05999999999997" y="825.2758620689656" as="targetPoint" />
            <mxPoint x="100.05999999999997" y="825" as="sourcePoint" />
          </mxGeometry>
        </mxCell>
        <mxCell id="aQD4BK5ffvHSCDFQBREc-60" value="Дата оформлення" style="rounded=1;whiteSpace=wrap;html=1;" vertex="1" parent="1">
          <mxGeometry x="100.05999999999997" y="810" width="140" height="30" as="geometry" />
        </mxCell>
        <mxCell id="aQD4BK5ffvHSCDFQBREc-61" value="" style="endArrow=none;html=1;rounded=0;" edge="1" parent="1">
          <mxGeometry width="50" height="50" relative="1" as="geometry">
            <mxPoint x="120.05999999999997" y="672.83" as="sourcePoint" />
            <mxPoint x="220.05999999999997" y="672.8" as="targetPoint" />
          </mxGeometry>
        </mxCell>
        <mxCell id="aQD4BK5ffvHSCDFQBREc-62" value="" style="endArrow=none;html=1;rounded=0;" edge="1" parent="1">
          <mxGeometry width="50" height="50" relative="1" as="geometry">
            <mxPoint x="125.05999999999997" y="713" as="sourcePoint" />
            <mxPoint x="215.04999999999998" y="713" as="targetPoint" />
          </mxGeometry>
        </mxCell>
        <mxCell id="aQD4BK5ffvHSCDFQBREc-63" value="" style="endArrow=none;html=1;rounded=0;" edge="1" parent="1">
          <mxGeometry width="50" height="50" relative="1" as="geometry">
            <mxPoint x="125.05999999999997" y="716" as="sourcePoint" />
            <mxPoint x="215.04999999999998" y="716" as="targetPoint" />
          </mxGeometry>
        </mxCell>
        <mxCell id="aQD4BK5ffvHSCDFQBREc-64" value="" style="endArrow=none;html=1;rounded=0;" edge="1" parent="1">
          <mxGeometry width="50" height="50" relative="1" as="geometry">
            <mxPoint x="117.55999999999997" y="753.23" as="sourcePoint" />
            <mxPoint x="222.55999999999997" y="753" as="targetPoint" />
          </mxGeometry>
        </mxCell>
        <mxCell id="aQD4BK5ffvHSCDFQBREc-65" value="" style="endArrow=none;html=1;rounded=0;" edge="1" parent="1">
          <mxGeometry width="50" height="50" relative="1" as="geometry">
            <mxPoint x="117.55999999999997" y="756.23" as="sourcePoint" />
            <mxPoint x="222.55999999999997" y="756" as="targetPoint" />
          </mxGeometry>
        </mxCell>
        <mxCell id="aQD4BK5ffvHSCDFQBREc-66" value="" style="endArrow=none;html=1;rounded=0;" edge="1" parent="1">
          <mxGeometry width="50" height="50" relative="1" as="geometry">
            <mxPoint x="128.80999999999997" y="793.23" as="sourcePoint" />
            <mxPoint x="211.30999999999997" y="793" as="targetPoint" />
          </mxGeometry>
        </mxCell>
        <mxCell id="aQD4BK5ffvHSCDFQBREc-67" value="" style="endArrow=none;html=1;rounded=0;" edge="1" parent="1">
          <mxGeometry width="50" height="50" relative="1" as="geometry">
            <mxPoint x="128.80999999999997" y="796.23" as="sourcePoint" />
            <mxPoint x="211.30999999999997" y="796" as="targetPoint" />
          </mxGeometry>
        </mxCell>
        <mxCell id="aQD4BK5ffvHSCDFQBREc-70" style="edgeStyle=orthogonalEdgeStyle;rounded=0;orthogonalLoop=1;jettySize=auto;html=1;exitX=0;exitY=0.5;exitDx=0;exitDy=0;endArrow=none;endFill=0;startArrow=openThin;startFill=0;" edge="1" parent="1" source="aQD4BK5ffvHSCDFQBREc-68">
          <mxGeometry relative="1" as="geometry">
            <mxPoint x="80.04999999999998" y="865.2" as="targetPoint" />
          </mxGeometry>
        </mxCell>
        <mxCell id="aQD4BK5ffvHSCDFQBREc-68" value="Загальна ціна" style="rounded=1;whiteSpace=wrap;html=1;" vertex="1" parent="1">
          <mxGeometry x="100.05999999999997" y="850" width="140" height="30" as="geometry" />
        </mxCell>
        <mxCell id="aQD4BK5ffvHSCDFQBREc-71" style="edgeStyle=orthogonalEdgeStyle;rounded=0;orthogonalLoop=1;jettySize=auto;html=1;endArrow=none;endFill=0;exitX=0;exitY=1;exitDx=0;exitDy=0;" edge="1" source="aQD4BK5ffvHSCDFQBREc-72" parent="1">
          <mxGeometry relative="1" as="geometry">
            <mxPoint x="320.02" y="745" as="targetPoint" />
            <mxPoint x="320" y="515" as="sourcePoint" />
          </mxGeometry>
        </mxCell>
        <mxCell id="aQD4BK5ffvHSCDFQBREc-72" value="&lt;span style=&quot;font-size: 13px;&quot;&gt;&lt;b&gt;Список контракту&lt;/b&gt;&lt;/span&gt;" style="rounded=0;whiteSpace=wrap;html=1;" vertex="1" parent="1">
          <mxGeometry x="320.03" y="480" width="160" height="40" as="geometry" />
        </mxCell>
        <mxCell id="aQD4BK5ffvHSCDFQBREc-73" style="edgeStyle=orthogonalEdgeStyle;rounded=0;orthogonalLoop=1;jettySize=auto;html=1;exitX=0;exitY=0.5;exitDx=0;exitDy=0;startArrow=openThin;startFill=0;endArrow=none;endFill=0;" edge="1" source="aQD4BK5ffvHSCDFQBREc-74" parent="1">
          <mxGeometry relative="1" as="geometry">
            <mxPoint x="320.03" y="545" as="targetPoint" />
          </mxGeometry>
        </mxCell>
        <mxCell id="aQD4BK5ffvHSCDFQBREc-74" value="Номер списку" style="rounded=1;whiteSpace=wrap;html=1;" vertex="1" parent="1">
          <mxGeometry x="340.03" y="530" width="140" height="30" as="geometry" />
        </mxCell>
        <mxCell id="aQD4BK5ffvHSCDFQBREc-75" style="edgeStyle=orthogonalEdgeStyle;rounded=0;orthogonalLoop=1;jettySize=auto;html=1;exitX=0;exitY=0.5;exitDx=0;exitDy=0;endArrow=none;endFill=0;startArrow=openThin;startFill=0;" edge="1" source="aQD4BK5ffvHSCDFQBREc-76" parent="1">
          <mxGeometry relative="1" as="geometry">
            <mxPoint x="320.03" y="585" as="targetPoint" />
          </mxGeometry>
        </mxCell>
        <mxCell id="aQD4BK5ffvHSCDFQBREc-76" value="Номер контракту" style="rounded=1;whiteSpace=wrap;html=1;" vertex="1" parent="1">
          <mxGeometry x="340.03" y="570" width="140" height="30" as="geometry" />
        </mxCell>
        <mxCell id="aQD4BK5ffvHSCDFQBREc-77" style="edgeStyle=orthogonalEdgeStyle;rounded=0;orthogonalLoop=1;jettySize=auto;html=1;exitX=0;exitY=0.5;exitDx=0;exitDy=0;endArrow=none;endFill=0;startArrow=openThin;startFill=0;" edge="1" source="aQD4BK5ffvHSCDFQBREc-78" parent="1">
          <mxGeometry relative="1" as="geometry">
            <mxPoint x="320" y="625.2758620689656" as="targetPoint" />
          </mxGeometry>
        </mxCell>
        <mxCell id="aQD4BK5ffvHSCDFQBREc-172" style="edgeStyle=orthogonalEdgeStyle;rounded=0;orthogonalLoop=1;jettySize=auto;html=1;exitX=1;exitY=0.5;exitDx=0;exitDy=0;endArrow=ERmandOne;endFill=0;startArrow=ERoneToMany;startFill=0;" edge="1" parent="1" source="aQD4BK5ffvHSCDFQBREc-78">
          <mxGeometry relative="1" as="geometry">
            <mxPoint x="560" y="625.2857142857142" as="targetPoint" />
          </mxGeometry>
        </mxCell>
        <mxCell id="aQD4BK5ffvHSCDFQBREc-78" value="Номер проєкту" style="rounded=1;whiteSpace=wrap;html=1;" vertex="1" parent="1">
          <mxGeometry x="340.03" y="610" width="140" height="30" as="geometry" />
        </mxCell>
        <mxCell id="aQD4BK5ffvHSCDFQBREc-79" style="edgeStyle=orthogonalEdgeStyle;rounded=0;orthogonalLoop=1;jettySize=auto;html=1;exitX=0;exitY=0.5;exitDx=0;exitDy=0;startArrow=openThin;startFill=0;endArrow=none;endFill=0;" edge="1" source="aQD4BK5ffvHSCDFQBREc-80" parent="1">
          <mxGeometry relative="1" as="geometry">
            <mxPoint x="320.03" y="665.2758620689656" as="targetPoint" />
          </mxGeometry>
        </mxCell>
        <mxCell id="aQD4BK5ffvHSCDFQBREc-174" style="edgeStyle=orthogonalEdgeStyle;rounded=0;orthogonalLoop=1;jettySize=auto;html=1;exitX=1;exitY=0.5;exitDx=0;exitDy=0;endArrow=ERmandOne;endFill=0;startArrow=ERoneToMany;startFill=0;" edge="1" parent="1" source="aQD4BK5ffvHSCDFQBREc-80">
          <mxGeometry relative="1" as="geometry">
            <mxPoint x="560" y="820" as="targetPoint" />
            <Array as="points">
              <mxPoint x="530" y="665" />
              <mxPoint x="530" y="820" />
            </Array>
          </mxGeometry>
        </mxCell>
        <mxCell id="aQD4BK5ffvHSCDFQBREc-80" value="Номер заверш. проєкту" style="rounded=1;whiteSpace=wrap;html=1;" vertex="1" parent="1">
          <mxGeometry x="340.03" y="650" width="140" height="30" as="geometry" />
        </mxCell>
        <mxCell id="aQD4BK5ffvHSCDFQBREc-81" style="edgeStyle=orthogonalEdgeStyle;rounded=0;orthogonalLoop=1;jettySize=auto;html=1;exitX=0;exitY=0.5;exitDx=0;exitDy=0;startArrow=openThin;startFill=0;endArrow=none;endFill=0;" edge="1" parent="1">
          <mxGeometry relative="1" as="geometry">
            <mxPoint x="320.03" y="705.2758620689656" as="targetPoint" />
            <mxPoint x="340.03" y="705" as="sourcePoint" />
          </mxGeometry>
        </mxCell>
        <mxCell id="aQD4BK5ffvHSCDFQBREc-82" value="Дата початку роботи" style="rounded=1;whiteSpace=wrap;html=1;" vertex="1" parent="1">
          <mxGeometry x="340.03" y="690" width="140" height="30" as="geometry" />
        </mxCell>
        <mxCell id="aQD4BK5ffvHSCDFQBREc-83" value="" style="endArrow=none;html=1;rounded=0;" edge="1" parent="1">
          <mxGeometry width="50" height="50" relative="1" as="geometry">
            <mxPoint x="370" y="552.6" as="sourcePoint" />
            <mxPoint x="450" y="552.77" as="targetPoint" />
          </mxGeometry>
        </mxCell>
        <mxCell id="aQD4BK5ffvHSCDFQBREc-86" value="" style="endArrow=none;html=1;rounded=0;" edge="1" parent="1">
          <mxGeometry width="50" height="50" relative="1" as="geometry">
            <mxPoint x="365.03" y="633.23" as="sourcePoint" />
            <mxPoint x="455.03" y="633" as="targetPoint" />
          </mxGeometry>
        </mxCell>
        <mxCell id="aQD4BK5ffvHSCDFQBREc-90" style="edgeStyle=orthogonalEdgeStyle;rounded=0;orthogonalLoop=1;jettySize=auto;html=1;exitX=0;exitY=0.5;exitDx=0;exitDy=0;endArrow=none;endFill=0;startArrow=openThin;startFill=0;" edge="1" source="aQD4BK5ffvHSCDFQBREc-91" parent="1">
          <mxGeometry relative="1" as="geometry">
            <mxPoint x="320.02" y="745.2" as="targetPoint" />
          </mxGeometry>
        </mxCell>
        <mxCell id="aQD4BK5ffvHSCDFQBREc-91" value="Дата закінчення роботи" style="rounded=1;whiteSpace=wrap;html=1;" vertex="1" parent="1">
          <mxGeometry x="340.03" y="730" width="140" height="30" as="geometry" />
        </mxCell>
        <mxCell id="aQD4BK5ffvHSCDFQBREc-92" value="" style="endArrow=none;html=1;rounded=0;" edge="1" parent="1">
          <mxGeometry width="50" height="50" relative="1" as="geometry">
            <mxPoint x="362.03" y="593.03" as="sourcePoint" />
            <mxPoint x="462.03" y="593" as="targetPoint" />
          </mxGeometry>
        </mxCell>
        <mxCell id="aQD4BK5ffvHSCDFQBREc-94" value="" style="endArrow=none;html=1;rounded=0;" edge="1" parent="1">
          <mxGeometry width="50" height="50" relative="1" as="geometry">
            <mxPoint x="362.03" y="596.03" as="sourcePoint" />
            <mxPoint x="462.03" y="596" as="targetPoint" />
          </mxGeometry>
        </mxCell>
        <mxCell id="aQD4BK5ffvHSCDFQBREc-95" value="" style="endArrow=none;html=1;rounded=0;" edge="1" parent="1">
          <mxGeometry width="50" height="50" relative="1" as="geometry">
            <mxPoint x="365.03" y="636.23" as="sourcePoint" />
            <mxPoint x="455.03" y="636" as="targetPoint" />
          </mxGeometry>
        </mxCell>
        <mxCell id="aQD4BK5ffvHSCDFQBREc-96" value="" style="endArrow=none;html=1;rounded=0;" edge="1" parent="1">
          <mxGeometry width="50" height="50" relative="1" as="geometry">
            <mxPoint x="350.03" y="673.23" as="sourcePoint" />
            <mxPoint x="470.03" y="673" as="targetPoint" />
          </mxGeometry>
        </mxCell>
        <mxCell id="aQD4BK5ffvHSCDFQBREc-97" value="" style="endArrow=none;html=1;rounded=0;" edge="1" parent="1">
          <mxGeometry width="50" height="50" relative="1" as="geometry">
            <mxPoint x="350.03" y="676.23" as="sourcePoint" />
            <mxPoint x="470.03" y="676" as="targetPoint" />
          </mxGeometry>
        </mxCell>
        <mxCell id="aQD4BK5ffvHSCDFQBREc-98" style="edgeStyle=orthogonalEdgeStyle;rounded=0;orthogonalLoop=1;jettySize=auto;html=1;exitX=0;exitY=1;exitDx=0;exitDy=0;endArrow=none;endFill=0;" edge="1" source="aQD4BK5ffvHSCDFQBREc-99" parent="1">
          <mxGeometry relative="1" as="geometry">
            <mxPoint x="560" y="705" as="targetPoint" />
            <mxPoint x="560" y="595" as="sourcePoint" />
          </mxGeometry>
        </mxCell>
        <mxCell id="aQD4BK5ffvHSCDFQBREc-99" value="&lt;span style=&quot;font-size: 13px;&quot;&gt;&lt;b&gt;Дійсні проєкти&lt;/b&gt;&lt;/span&gt;" style="rounded=0;whiteSpace=wrap;html=1;" vertex="1" parent="1">
          <mxGeometry x="560" y="560" width="160" height="40" as="geometry" />
        </mxCell>
        <mxCell id="aQD4BK5ffvHSCDFQBREc-100" style="edgeStyle=orthogonalEdgeStyle;rounded=0;orthogonalLoop=1;jettySize=auto;html=1;exitX=0;exitY=0.5;exitDx=0;exitDy=0;startArrow=openThin;startFill=0;endArrow=none;endFill=0;" edge="1" source="aQD4BK5ffvHSCDFQBREc-101" parent="1">
          <mxGeometry relative="1" as="geometry">
            <mxPoint x="560" y="625" as="targetPoint" />
          </mxGeometry>
        </mxCell>
        <mxCell id="aQD4BK5ffvHSCDFQBREc-101" value="Номер проєкту" style="rounded=1;whiteSpace=wrap;html=1;" vertex="1" parent="1">
          <mxGeometry x="580" y="610" width="140" height="30" as="geometry" />
        </mxCell>
        <mxCell id="aQD4BK5ffvHSCDFQBREc-102" style="edgeStyle=orthogonalEdgeStyle;rounded=0;orthogonalLoop=1;jettySize=auto;html=1;exitX=0;exitY=0.5;exitDx=0;exitDy=0;endArrow=none;endFill=0;startArrow=openThin;startFill=0;" edge="1" source="aQD4BK5ffvHSCDFQBREc-103" parent="1">
          <mxGeometry relative="1" as="geometry">
            <mxPoint x="560" y="665" as="targetPoint" />
          </mxGeometry>
        </mxCell>
        <mxCell id="aQD4BK5ffvHSCDFQBREc-103" value="Назва проєкту" style="rounded=1;whiteSpace=wrap;html=1;" vertex="1" parent="1">
          <mxGeometry x="580" y="650" width="140" height="30" as="geometry" />
        </mxCell>
        <mxCell id="aQD4BK5ffvHSCDFQBREc-105" style="edgeStyle=orthogonalEdgeStyle;rounded=0;orthogonalLoop=1;jettySize=auto;html=1;exitX=0;exitY=0.5;exitDx=0;exitDy=0;endArrow=none;endFill=0;startArrow=openThin;startFill=0;" edge="1" source="aQD4BK5ffvHSCDFQBREc-106" parent="1">
          <mxGeometry relative="1" as="geometry">
            <mxPoint x="560" y="705.047619047619" as="targetPoint" />
          </mxGeometry>
        </mxCell>
        <mxCell id="aQD4BK5ffvHSCDFQBREc-106" value="Ціна за проєкт" style="rounded=1;whiteSpace=wrap;html=1;" vertex="1" parent="1">
          <mxGeometry x="580" y="690" width="140" height="30" as="geometry" />
        </mxCell>
        <mxCell id="aQD4BK5ffvHSCDFQBREc-107" value="" style="endArrow=none;html=1;rounded=0;" edge="1" parent="1">
          <mxGeometry width="50" height="50" relative="1" as="geometry">
            <mxPoint x="605" y="633.94" as="sourcePoint" />
            <mxPoint x="695" y="633.71" as="targetPoint" />
          </mxGeometry>
        </mxCell>
        <mxCell id="aQD4BK5ffvHSCDFQBREc-108" style="edgeStyle=orthogonalEdgeStyle;rounded=0;orthogonalLoop=1;jettySize=auto;html=1;exitX=0;exitY=1;exitDx=0;exitDy=0;endArrow=none;endFill=0;" edge="1" source="aQD4BK5ffvHSCDFQBREc-109" parent="1">
          <mxGeometry relative="1" as="geometry">
            <mxPoint x="560" y="905" as="targetPoint" />
            <mxPoint x="560" y="795" as="sourcePoint" />
          </mxGeometry>
        </mxCell>
        <mxCell id="aQD4BK5ffvHSCDFQBREc-109" value="&lt;span style=&quot;font-size: 13px;&quot;&gt;&lt;b&gt;Завершені проєкти&lt;/b&gt;&lt;/span&gt;" style="rounded=0;whiteSpace=wrap;html=1;" vertex="1" parent="1">
          <mxGeometry x="560" y="760" width="160" height="40" as="geometry" />
        </mxCell>
        <mxCell id="aQD4BK5ffvHSCDFQBREc-110" style="edgeStyle=orthogonalEdgeStyle;rounded=0;orthogonalLoop=1;jettySize=auto;html=1;exitX=0;exitY=0.5;exitDx=0;exitDy=0;startArrow=openThin;startFill=0;endArrow=none;endFill=0;" edge="1" source="aQD4BK5ffvHSCDFQBREc-111" parent="1">
          <mxGeometry relative="1" as="geometry">
            <mxPoint x="560" y="825" as="targetPoint" />
          </mxGeometry>
        </mxCell>
        <mxCell id="aQD4BK5ffvHSCDFQBREc-111" value="Номер заверш. проєкту" style="rounded=1;whiteSpace=wrap;html=1;" vertex="1" parent="1">
          <mxGeometry x="580" y="810" width="140" height="30" as="geometry" />
        </mxCell>
        <mxCell id="aQD4BK5ffvHSCDFQBREc-112" style="edgeStyle=orthogonalEdgeStyle;rounded=0;orthogonalLoop=1;jettySize=auto;html=1;exitX=0;exitY=0.5;exitDx=0;exitDy=0;endArrow=none;endFill=0;startArrow=openThin;startFill=0;" edge="1" source="aQD4BK5ffvHSCDFQBREc-113" parent="1">
          <mxGeometry relative="1" as="geometry">
            <mxPoint x="560" y="865" as="targetPoint" />
          </mxGeometry>
        </mxCell>
        <mxCell id="aQD4BK5ffvHSCDFQBREc-113" value="Назва проєкту" style="rounded=1;whiteSpace=wrap;html=1;" vertex="1" parent="1">
          <mxGeometry x="580" y="850" width="140" height="30" as="geometry" />
        </mxCell>
        <mxCell id="aQD4BK5ffvHSCDFQBREc-114" style="edgeStyle=orthogonalEdgeStyle;rounded=0;orthogonalLoop=1;jettySize=auto;html=1;exitX=0;exitY=0.5;exitDx=0;exitDy=0;endArrow=none;endFill=0;startArrow=openThin;startFill=0;" edge="1" source="aQD4BK5ffvHSCDFQBREc-115" parent="1">
          <mxGeometry relative="1" as="geometry">
            <mxPoint x="560" y="905.047619047619" as="targetPoint" />
          </mxGeometry>
        </mxCell>
        <mxCell id="aQD4BK5ffvHSCDFQBREc-115" value="Ціна за проєкт" style="rounded=1;whiteSpace=wrap;html=1;" vertex="1" parent="1">
          <mxGeometry x="580" y="890" width="140" height="30" as="geometry" />
        </mxCell>
        <mxCell id="aQD4BK5ffvHSCDFQBREc-117" value="" style="endArrow=none;html=1;rounded=0;" edge="1" parent="1">
          <mxGeometry width="50" height="50" relative="1" as="geometry">
            <mxPoint x="590" y="833.6600000000001" as="sourcePoint" />
            <mxPoint x="710" y="833.4300000000001" as="targetPoint" />
          </mxGeometry>
        </mxCell>
        <mxCell id="aQD4BK5ffvHSCDFQBREc-119" style="edgeStyle=orthogonalEdgeStyle;rounded=0;orthogonalLoop=1;jettySize=auto;html=1;exitX=0;exitY=1;exitDx=0;exitDy=0;endArrow=none;endFill=0;" edge="1" source="aQD4BK5ffvHSCDFQBREc-120" parent="1">
          <mxGeometry relative="1" as="geometry">
            <mxPoint x="320" y="265" as="targetPoint" />
            <mxPoint x="320" y="155" as="sourcePoint" />
          </mxGeometry>
        </mxCell>
        <mxCell id="aQD4BK5ffvHSCDFQBREc-120" value="&lt;font size=&quot;1&quot; style=&quot;&quot;&gt;&lt;b style=&quot;font-size: 13px;&quot;&gt;Працівник - Спеціальність&lt;/b&gt;&lt;/font&gt;" style="rounded=0;whiteSpace=wrap;html=1;" vertex="1" parent="1">
          <mxGeometry x="319.9999999999999" y="120" width="160" height="40" as="geometry" />
        </mxCell>
        <mxCell id="aQD4BK5ffvHSCDFQBREc-121" style="edgeStyle=orthogonalEdgeStyle;rounded=0;orthogonalLoop=1;jettySize=auto;html=1;exitX=0;exitY=0.5;exitDx=0;exitDy=0;startArrow=openThin;startFill=0;endArrow=none;endFill=0;" edge="1" source="aQD4BK5ffvHSCDFQBREc-122" parent="1">
          <mxGeometry relative="1" as="geometry">
            <mxPoint x="319.9999999999999" y="185" as="targetPoint" />
          </mxGeometry>
        </mxCell>
        <mxCell id="aQD4BK5ffvHSCDFQBREc-122" value="Номер зв&#39;язку" style="rounded=1;whiteSpace=wrap;html=1;" vertex="1" parent="1">
          <mxGeometry x="339.9999999999999" y="170" width="140" height="30" as="geometry" />
        </mxCell>
        <mxCell id="aQD4BK5ffvHSCDFQBREc-123" style="edgeStyle=orthogonalEdgeStyle;rounded=0;orthogonalLoop=1;jettySize=auto;html=1;exitX=0;exitY=0.5;exitDx=0;exitDy=0;endArrow=none;endFill=0;startArrow=openThin;startFill=0;" edge="1" source="aQD4BK5ffvHSCDFQBREc-124" parent="1">
          <mxGeometry relative="1" as="geometry">
            <mxPoint x="319.9999999999999" y="225" as="targetPoint" />
          </mxGeometry>
        </mxCell>
        <mxCell id="aQD4BK5ffvHSCDFQBREc-124" value="Номер працівника" style="rounded=1;whiteSpace=wrap;html=1;" vertex="1" parent="1">
          <mxGeometry x="339.9999999999999" y="210" width="140" height="30" as="geometry" />
        </mxCell>
        <mxCell id="aQD4BK5ffvHSCDFQBREc-126" style="edgeStyle=orthogonalEdgeStyle;rounded=0;orthogonalLoop=1;jettySize=auto;html=1;exitX=0;exitY=0.5;exitDx=0;exitDy=0;endArrow=none;endFill=0;startArrow=openThin;startFill=0;" edge="1" source="aQD4BK5ffvHSCDFQBREc-127" parent="1">
          <mxGeometry relative="1" as="geometry">
            <mxPoint x="320" y="265.04761904761904" as="targetPoint" />
          </mxGeometry>
        </mxCell>
        <mxCell id="aQD4BK5ffvHSCDFQBREc-176" style="edgeStyle=orthogonalEdgeStyle;rounded=0;orthogonalLoop=1;jettySize=auto;html=1;exitX=1;exitY=0.5;exitDx=0;exitDy=0;startArrow=ERoneToMany;startFill=0;endArrow=ERmandOne;endFill=0;" edge="1" parent="1" source="aQD4BK5ffvHSCDFQBREc-127">
          <mxGeometry relative="1" as="geometry">
            <mxPoint x="560" y="140" as="targetPoint" />
            <Array as="points">
              <mxPoint x="520" y="265" />
              <mxPoint x="520" y="140" />
            </Array>
          </mxGeometry>
        </mxCell>
        <mxCell id="aQD4BK5ffvHSCDFQBREc-127" value="Номер спеціальності" style="rounded=1;whiteSpace=wrap;html=1;" vertex="1" parent="1">
          <mxGeometry x="339.9999999999999" y="250" width="140" height="30" as="geometry" />
        </mxCell>
        <mxCell id="aQD4BK5ffvHSCDFQBREc-128" value="" style="endArrow=none;html=1;rounded=0;" edge="1" parent="1">
          <mxGeometry width="50" height="50" relative="1" as="geometry">
            <mxPoint x="347.5" y="273" as="sourcePoint" />
            <mxPoint x="472.5" y="273" as="targetPoint" />
          </mxGeometry>
        </mxCell>
        <mxCell id="aQD4BK5ffvHSCDFQBREc-129" value="" style="endArrow=none;html=1;rounded=0;" edge="1" parent="1">
          <mxGeometry width="50" height="50" relative="1" as="geometry">
            <mxPoint x="347.5" y="276" as="sourcePoint" />
            <mxPoint x="472.5" y="276" as="targetPoint" />
          </mxGeometry>
        </mxCell>
        <mxCell id="aQD4BK5ffvHSCDFQBREc-130" value="" style="endArrow=none;html=1;rounded=0;" edge="1" parent="1">
          <mxGeometry width="50" height="50" relative="1" as="geometry">
            <mxPoint x="370.08000000000004" y="193" as="sourcePoint" />
            <mxPoint x="450.04999999999995" y="193" as="targetPoint" />
          </mxGeometry>
        </mxCell>
        <mxCell id="aQD4BK5ffvHSCDFQBREc-131" value="" style="endArrow=none;html=1;rounded=0;" edge="1" parent="1">
          <mxGeometry width="50" height="50" relative="1" as="geometry">
            <mxPoint x="357.5" y="233.23000000000002" as="sourcePoint" />
            <mxPoint x="462.5" y="233" as="targetPoint" />
          </mxGeometry>
        </mxCell>
        <mxCell id="aQD4BK5ffvHSCDFQBREc-132" value="" style="endArrow=none;html=1;rounded=0;" edge="1" parent="1">
          <mxGeometry width="50" height="50" relative="1" as="geometry">
            <mxPoint x="357.5" y="236.23000000000002" as="sourcePoint" />
            <mxPoint x="462.5" y="236" as="targetPoint" />
          </mxGeometry>
        </mxCell>
        <mxCell id="aQD4BK5ffvHSCDFQBREc-133" style="edgeStyle=orthogonalEdgeStyle;rounded=0;orthogonalLoop=1;jettySize=auto;html=1;exitX=0;exitY=1;exitDx=0;exitDy=0;endArrow=none;endFill=0;" edge="1" source="aQD4BK5ffvHSCDFQBREc-134" parent="1">
          <mxGeometry relative="1" as="geometry">
            <mxPoint x="80.05999999999997" y="505" as="targetPoint" />
            <mxPoint x="80.05999999999997" y="395" as="sourcePoint" />
          </mxGeometry>
        </mxCell>
        <mxCell id="aQD4BK5ffvHSCDFQBREc-134" value="&lt;font size=&quot;1&quot; style=&quot;&quot;&gt;&lt;b style=&quot;font-size: 13px;&quot;&gt;Працівник - Бригада&lt;/b&gt;&lt;/font&gt;" style="rounded=0;whiteSpace=wrap;html=1;" vertex="1" parent="1">
          <mxGeometry x="80.05999999999986" y="360" width="160" height="40" as="geometry" />
        </mxCell>
        <mxCell id="aQD4BK5ffvHSCDFQBREc-135" style="edgeStyle=orthogonalEdgeStyle;rounded=0;orthogonalLoop=1;jettySize=auto;html=1;exitX=0;exitY=0.5;exitDx=0;exitDy=0;startArrow=openThin;startFill=0;endArrow=none;endFill=0;" edge="1" source="aQD4BK5ffvHSCDFQBREc-136" parent="1">
          <mxGeometry relative="1" as="geometry">
            <mxPoint x="80.05999999999986" y="425" as="targetPoint" />
          </mxGeometry>
        </mxCell>
        <mxCell id="aQD4BK5ffvHSCDFQBREc-136" value="Номер зв&#39;язку" style="rounded=1;whiteSpace=wrap;html=1;" vertex="1" parent="1">
          <mxGeometry x="100.05999999999986" y="410" width="140" height="30" as="geometry" />
        </mxCell>
        <mxCell id="aQD4BK5ffvHSCDFQBREc-165" style="edgeStyle=orthogonalEdgeStyle;rounded=0;orthogonalLoop=1;jettySize=auto;html=1;exitX=0;exitY=0.5;exitDx=0;exitDy=0;startArrow=openThin;startFill=0;endArrow=none;endFill=0;" edge="1" parent="1" source="aQD4BK5ffvHSCDFQBREc-138">
          <mxGeometry relative="1" as="geometry">
            <mxPoint x="80" y="505.28571428571433" as="targetPoint" />
          </mxGeometry>
        </mxCell>
        <mxCell id="aQD4BK5ffvHSCDFQBREc-168" style="edgeStyle=orthogonalEdgeStyle;rounded=0;orthogonalLoop=1;jettySize=auto;html=1;exitX=1;exitY=0.5;exitDx=0;exitDy=0;endArrow=ERmandOne;endFill=0;startArrow=ERoneToMany;startFill=0;entryX=1;entryY=0.5;entryDx=0;entryDy=0;" edge="1" parent="1" source="aQD4BK5ffvHSCDFQBREc-138" target="aQD4BK5ffvHSCDFQBREc-22">
          <mxGeometry relative="1" as="geometry">
            <mxPoint x="320" y="380" as="targetPoint" />
            <Array as="points">
              <mxPoint x="300" y="505" />
              <mxPoint x="300" y="460" />
              <mxPoint x="500" y="460" />
              <mxPoint x="500" y="385" />
            </Array>
          </mxGeometry>
        </mxCell>
        <mxCell id="aQD4BK5ffvHSCDFQBREc-138" value="Номер бригади" style="rounded=1;whiteSpace=wrap;html=1;" vertex="1" parent="1">
          <mxGeometry x="100.05999999999986" y="490" width="140" height="30" as="geometry" />
        </mxCell>
        <mxCell id="aQD4BK5ffvHSCDFQBREc-166" style="edgeStyle=orthogonalEdgeStyle;rounded=0;orthogonalLoop=1;jettySize=auto;html=1;exitX=0;exitY=0.5;exitDx=0;exitDy=0;endArrow=none;endFill=0;startArrow=openThin;startFill=0;" edge="1" parent="1" source="aQD4BK5ffvHSCDFQBREc-140">
          <mxGeometry relative="1" as="geometry">
            <mxPoint x="80" y="465.28571428571433" as="targetPoint" />
          </mxGeometry>
        </mxCell>
        <mxCell id="aQD4BK5ffvHSCDFQBREc-140" value="Номер працівника" style="rounded=1;whiteSpace=wrap;html=1;" vertex="1" parent="1">
          <mxGeometry x="100.05999999999986" y="450" width="140" height="30" as="geometry" />
        </mxCell>
        <mxCell id="aQD4BK5ffvHSCDFQBREc-143" value="" style="endArrow=none;html=1;rounded=0;" edge="1" parent="1">
          <mxGeometry width="50" height="50" relative="1" as="geometry">
            <mxPoint x="130.1399999999999" y="433" as="sourcePoint" />
            <mxPoint x="210.10999999999993" y="433" as="targetPoint" />
          </mxGeometry>
        </mxCell>
        <mxCell id="aQD4BK5ffvHSCDFQBREc-153" value="" style="endArrow=none;html=1;rounded=0;" edge="1" parent="1">
          <mxGeometry width="50" height="50" relative="1" as="geometry">
            <mxPoint x="117.55999999999995" y="473.23" as="sourcePoint" />
            <mxPoint x="222.55999999999995" y="473" as="targetPoint" />
          </mxGeometry>
        </mxCell>
        <mxCell id="aQD4BK5ffvHSCDFQBREc-154" value="" style="endArrow=none;html=1;rounded=0;" edge="1" parent="1">
          <mxGeometry width="50" height="50" relative="1" as="geometry">
            <mxPoint x="117.55999999999995" y="476.23" as="sourcePoint" />
            <mxPoint x="222.55999999999995" y="476" as="targetPoint" />
          </mxGeometry>
        </mxCell>
        <mxCell id="aQD4BK5ffvHSCDFQBREc-155" value="" style="endArrow=none;html=1;rounded=0;" edge="1" parent="1">
          <mxGeometry width="50" height="50" relative="1" as="geometry">
            <mxPoint x="125.06" y="513" as="sourcePoint" />
            <mxPoint x="215.05" y="513" as="targetPoint" />
          </mxGeometry>
        </mxCell>
        <mxCell id="aQD4BK5ffvHSCDFQBREc-156" value="" style="endArrow=none;html=1;rounded=0;" edge="1" parent="1">
          <mxGeometry width="50" height="50" relative="1" as="geometry">
            <mxPoint x="125.06" y="516" as="sourcePoint" />
            <mxPoint x="215.05" y="516" as="targetPoint" />
          </mxGeometry>
        </mxCell>
        <mxCell id="aQD4BK5ffvHSCDFQBREc-177" value="&lt;b&gt;&lt;font style=&quot;font-size: 13px;&quot;&gt;б&lt;/font&gt;&lt;/b&gt;" style="text;strokeColor=none;align=center;fillColor=none;html=1;verticalAlign=middle;whiteSpace=wrap;rounded=0;" vertex="1" parent="1">
          <mxGeometry x="297.03" y="202" width="20" height="20" as="geometry" />
        </mxCell>
        <mxCell id="aQD4BK5ffvHSCDFQBREc-178" value="&lt;b&gt;&lt;font style=&quot;font-size: 13px;&quot;&gt;б&lt;/font&gt;&lt;/b&gt;" style="text;strokeColor=none;align=center;fillColor=none;html=1;verticalAlign=middle;whiteSpace=wrap;rounded=0;" vertex="1" parent="1">
          <mxGeometry x="482.03" y="240" width="20" height="20" as="geometry" />
        </mxCell>
        <mxCell id="aQD4BK5ffvHSCDFQBREc-179" value="&lt;b&gt;&lt;font style=&quot;font-size: 13px;&quot;&gt;б&lt;/font&gt;&lt;/b&gt;" style="text;strokeColor=none;align=center;fillColor=none;html=1;verticalAlign=middle;whiteSpace=wrap;rounded=0;" vertex="1" parent="1">
          <mxGeometry x="244.05999999999997" y="439" width="20" height="20" as="geometry" />
        </mxCell>
        <mxCell id="aQD4BK5ffvHSCDFQBREc-180" value="&lt;b&gt;&lt;font style=&quot;font-size: 13px;&quot;&gt;б&lt;/font&gt;&lt;/b&gt;" style="text;strokeColor=none;align=center;fillColor=none;html=1;verticalAlign=middle;whiteSpace=wrap;rounded=0;" vertex="1" parent="1">
          <mxGeometry x="244.05999999999997" y="480" width="20" height="20" as="geometry" />
        </mxCell>
        <mxCell id="aQD4BK5ffvHSCDFQBREc-181" value="&lt;b&gt;&lt;font style=&quot;font-size: 13px;&quot;&gt;б&lt;/font&gt;&lt;/b&gt;" style="text;strokeColor=none;align=center;fillColor=none;html=1;verticalAlign=middle;whiteSpace=wrap;rounded=0;" vertex="1" parent="1">
          <mxGeometry x="297.03" y="553" width="20" height="20" as="geometry" />
        </mxCell>
        <mxCell id="aQD4BK5ffvHSCDFQBREc-182" value="&lt;b&gt;&lt;font style=&quot;font-size: 13px;&quot;&gt;б&lt;/font&gt;&lt;/b&gt;" style="text;strokeColor=none;align=center;fillColor=none;html=1;verticalAlign=middle;whiteSpace=wrap;rounded=0;" vertex="1" parent="1">
          <mxGeometry x="244.05999999999997" y="760" width="20" height="20" as="geometry" />
        </mxCell>
        <mxCell id="aQD4BK5ffvHSCDFQBREc-183" value="&lt;b&gt;&lt;font style=&quot;font-size: 13px;&quot;&gt;б&lt;/font&gt;&lt;/b&gt;" style="text;strokeColor=none;align=center;fillColor=none;html=1;verticalAlign=middle;whiteSpace=wrap;rounded=0;" vertex="1" parent="1">
          <mxGeometry x="244.05999999999997" y="680" width="20" height="20" as="geometry" />
        </mxCell>
        <mxCell id="aQD4BK5ffvHSCDFQBREc-184" value="&lt;b&gt;&lt;font style=&quot;font-size: 13px;&quot;&gt;1&lt;/font&gt;&lt;/b&gt;" style="text;strokeColor=none;align=center;fillColor=none;html=1;verticalAlign=middle;whiteSpace=wrap;rounded=0;" vertex="1" parent="1">
          <mxGeometry x="538" y="116" width="20" height="20" as="geometry" />
        </mxCell>
        <mxCell id="aQD4BK5ffvHSCDFQBREc-185" value="&lt;b&gt;&lt;font style=&quot;font-size: 13px;&quot;&gt;1&lt;/font&gt;&lt;/b&gt;" style="text;strokeColor=none;align=center;fillColor=none;html=1;verticalAlign=middle;whiteSpace=wrap;rounded=0;" vertex="1" parent="1">
          <mxGeometry x="244.06" y="82" width="20" height="20" as="geometry" />
        </mxCell>
        <mxCell id="aQD4BK5ffvHSCDFQBREc-186" value="&lt;b&gt;&lt;font style=&quot;font-size: 13px;&quot;&gt;1&lt;/font&gt;&lt;/b&gt;" style="text;strokeColor=none;align=center;fillColor=none;html=1;verticalAlign=middle;whiteSpace=wrap;rounded=0;" vertex="1" parent="1">
          <mxGeometry x="244.06" y="640" width="20" height="20" as="geometry" />
        </mxCell>
        <mxCell id="aQD4BK5ffvHSCDFQBREc-187" value="&lt;b&gt;&lt;font style=&quot;font-size: 13px;&quot;&gt;1&lt;/font&gt;&lt;/b&gt;" style="text;strokeColor=none;align=center;fillColor=none;html=1;verticalAlign=middle;whiteSpace=wrap;rounded=0;" vertex="1" parent="1">
          <mxGeometry x="537" y="600" width="20" height="20" as="geometry" />
        </mxCell>
        <mxCell id="aQD4BK5ffvHSCDFQBREc-188" value="&lt;b&gt;&lt;font style=&quot;font-size: 13px;&quot;&gt;1&lt;/font&gt;&lt;/b&gt;" style="text;strokeColor=none;align=center;fillColor=none;html=1;verticalAlign=middle;whiteSpace=wrap;rounded=0;" vertex="1" parent="1">
          <mxGeometry x="723" y="322" width="20" height="20" as="geometry" />
        </mxCell>
        <mxCell id="aQD4BK5ffvHSCDFQBREc-189" value="&lt;b&gt;&lt;font style=&quot;font-size: 13px;&quot;&gt;1&lt;/font&gt;&lt;/b&gt;" style="text;strokeColor=none;align=center;fillColor=none;html=1;verticalAlign=middle;whiteSpace=wrap;rounded=0;" vertex="1" parent="1">
          <mxGeometry x="482.03" y="360" width="20" height="20" as="geometry" />
        </mxCell>
        <mxCell id="aQD4BK5ffvHSCDFQBREc-190" value="&lt;b&gt;&lt;font style=&quot;font-size: 13px;&quot;&gt;б&lt;/font&gt;&lt;/b&gt;" style="text;strokeColor=none;align=center;fillColor=none;html=1;verticalAlign=middle;whiteSpace=wrap;rounded=0;" vertex="1" parent="1">
          <mxGeometry x="482.03" y="600" width="20" height="20" as="geometry" />
        </mxCell>
        <mxCell id="aQD4BK5ffvHSCDFQBREc-191" value="&lt;b&gt;&lt;font style=&quot;font-size: 13px;&quot;&gt;б&lt;/font&gt;&lt;/b&gt;" style="text;strokeColor=none;align=center;fillColor=none;html=1;verticalAlign=middle;whiteSpace=wrap;rounded=0;" vertex="1" parent="1">
          <mxGeometry x="482.03" y="640" width="20" height="20" as="geometry" />
        </mxCell>
        <mxCell id="aQD4BK5ffvHSCDFQBREc-192" value="&lt;b&gt;&lt;font style=&quot;font-size: 13px;&quot;&gt;1&lt;/font&gt;&lt;/b&gt;" style="text;strokeColor=none;align=center;fillColor=none;html=1;verticalAlign=middle;whiteSpace=wrap;rounded=0;" vertex="1" parent="1">
          <mxGeometry x="537" y="797" width="20" height="20" as="geometry" />
        </mxCell>
        <mxCell id="aQD4BK5ffvHSCDFQBREc-193" value="&lt;b&gt;&lt;font style=&quot;font-size: 13px;&quot;&gt;1&lt;/font&gt;&lt;/b&gt;" style="text;strokeColor=none;align=center;fillColor=none;html=1;verticalAlign=middle;whiteSpace=wrap;rounded=0;" vertex="1" parent="1">
          <mxGeometry x="59.06" y="437" width="20" height="20" as="geometry" />
        </mxCell>
        <mxCell id="aQD4BK5ffvHSCDFQBREc-195" value="&lt;b&gt;&lt;font style=&quot;font-size: 13px;&quot;&gt;б&lt;/font&gt;&lt;/b&gt;" style="text;strokeColor=none;align=center;fillColor=none;html=1;verticalAlign=middle;whiteSpace=wrap;rounded=0;" vertex="1" parent="1">
          <mxGeometry x="59.059999999999974" y="716" width="20" height="20" as="geometry" />
        </mxCell>
      </root>
    </mxGraphModel>
  </diagram>
</mxfile>
